<svg width="21" height="21" viewBox="0 0 21 21" fill="none" xmlns="http://www.w3.org/2000/svg">
<path d="M17.068 1.87708H3.73466C2.81799 1.87708 2.07633 2.62708 2.07633 3.54374L2.06799 18.5437L5.40133 15.2104H17.068C17.9847 15.2104 18.7347 14.4604 18.7347 13.5437V3.54374C18.7347 2.62708 17.9847 1.87708 17.068 1.87708ZM6.23466 7.71041H14.568C15.0263 7.71041 15.4013 8.08541 15.4013 8.54374C15.4013 9.00208 15.0263 9.37708 14.568 9.37708H6.23466C5.77633 9.37708 5.40133 9.00208 5.40133 8.54374C5.40133 8.08541 5.77633 7.71041 6.23466 7.71041ZM11.2347 11.8771H6.23466C5.77633 11.8771 5.40133 11.5021 5.40133 11.0437C5.40133 10.5854 5.77633 10.2104 6.23466 10.2104H11.2347C11.693 10.2104 12.068 10.5854 12.068 11.0437C12.068 11.5021 11.693 11.8771 11.2347 11.8771ZM14.568 6.87708H6.23466C5.77633 6.87708 5.40133 6.50208 5.40133 6.04374C5.40133 5.58541 5.77633 5.21041 6.23466 5.21041H14.568C15.0263 5.21041 15.4013 5.58541 15.4013 6.04374C15.4013 6.50208 15.0263 6.87708 14.568 6.87708Z" fill="#A9A9A9"/>
</svg>
