<svg width="21" height="21" viewBox="0 0 21 21" fill="none" xmlns="http://www.w3.org/2000/svg">
<path d="M3.03198 4.37712H4.69865V2.71045C3.78198 2.71045 3.03198 3.46045 3.03198 4.37712ZM3.03198 11.0438H4.69865V9.37712H3.03198V11.0438ZM6.36532 17.7104H8.03198V16.0438H6.36532V17.7104ZM3.03198 7.71045H4.69865V6.04378H3.03198V7.71045ZM11.3653 2.71045H9.69865V4.37712H11.3653V2.71045ZM16.3653 2.71045V4.37712H18.032C18.032 3.46045 17.282 2.71045 16.3653 2.71045ZM4.69865 17.7104V16.0438H3.03198C3.03198 16.9604 3.78198 17.7104 4.69865 17.7104ZM3.03198 14.3771H4.69865V12.7104H3.03198V14.3771ZM8.03198 2.71045H6.36532V4.37712H8.03198V2.71045ZM9.69865 17.7104H11.3653V16.0438H9.69865V17.7104ZM16.3653 11.0438H18.032V9.37712H16.3653V11.0438ZM16.3653 17.7104C17.282 17.7104 18.032 16.9604 18.032 16.0438H16.3653V17.7104ZM16.3653 7.71045H18.032V6.04378H16.3653V7.71045ZM16.3653 14.3771H18.032V12.7104H16.3653V14.3771ZM13.032 17.7104H14.6986V16.0438H13.032V17.7104ZM13.032 4.37712H14.6986V2.71045H13.032V4.37712Z" fill="#A9A9A9"/>
<path fill-rule="evenodd" clip-rule="evenodd" d="M7.3653 6.04382C6.81301 6.04382 6.3653 6.49154 6.3653 7.04382V13.3772C6.3653 13.9294 6.81301 14.3772 7.36529 14.3772H13.6986C14.2509 14.3772 14.6986 13.9294 14.6986 13.3772V7.04382C14.6986 6.49154 14.2509 6.04382 13.6986 6.04382H7.3653ZM9.42086 9.84011H7.93938C7.53197 9.84011 7.19864 9.50678 7.19864 9.09937V7.6179C7.19864 7.21049 7.53197 6.87716 7.93938 6.87716H9.42086C9.82826 6.87716 10.1616 7.21049 10.1616 7.6179V9.09937C10.1616 9.50678 9.82826 9.84011 9.42086 9.84011ZM9.42086 7.6179H7.93938V9.09937H9.42086V7.6179ZM7.93938 13.5438H9.42086C9.82826 13.5438 10.1616 13.2105 10.1616 12.8031V11.3216C10.1616 10.9142 9.82826 10.5809 9.42086 10.5809H7.93938C7.53197 10.5809 7.19864 10.9142 7.19864 11.3216V12.8031C7.19864 13.2105 7.53197 13.5438 7.93938 13.5438ZM7.93938 11.3216H9.42086V12.8031H7.93938V11.3216ZM10.9023 9.09937V7.6179C10.9023 7.21049 11.2357 6.87716 11.6431 6.87716H13.1246C13.532 6.87716 13.8653 7.21049 13.8653 7.6179V9.09937C13.8653 9.50678 13.532 9.84011 13.1246 9.84011H11.6431C11.2357 9.84011 10.9023 9.50678 10.9023 9.09937ZM11.6431 9.09937H13.1246V7.6179H11.6431V9.09937ZM13.8653 13.3587V12.9883C13.8653 12.8846 13.7838 12.8031 13.6801 12.8031H13.3097C13.206 12.8031 13.1245 12.8846 13.1245 12.9883V13.3587C13.1245 13.4624 13.206 13.5439 13.3097 13.5439H13.6801C13.7838 13.5439 13.8653 13.4624 13.8653 13.3587ZM10.9023 11.1364V10.7661C10.9023 10.6624 10.9838 10.5809 11.0875 10.5809H11.4579C11.5616 10.5809 11.6431 10.6624 11.6431 10.7661V11.1364C11.6431 11.2401 11.5616 11.3216 11.4579 11.3216H11.0875C10.9838 11.3216 10.9023 11.2401 10.9023 11.1364ZM12.1986 11.3216H11.8283C11.7246 11.3216 11.6431 11.403 11.6431 11.5068V11.8771C11.6431 11.9808 11.7246 12.0623 11.8283 12.0623H12.1986C12.3023 12.0623 12.3838 11.9808 12.3838 11.8771V11.5068C12.3838 11.403 12.3023 11.3216 12.1986 11.3216ZM10.9023 12.6178V12.2474C10.9023 12.1437 10.9838 12.0622 11.0875 12.0622H11.4579C11.5616 12.0622 11.6431 12.1437 11.6431 12.2474V12.6178C11.6431 12.7215 11.5616 12.803 11.4579 12.803H11.0875C10.9838 12.803 10.9023 12.7215 10.9023 12.6178ZM11.8283 13.5439H12.1986C12.3023 13.5439 12.3838 13.4624 12.3838 13.3587V12.9883C12.3838 12.8846 12.3023 12.8031 12.1986 12.8031H11.8283C11.7246 12.8031 11.6431 12.8846 11.6431 12.9883V13.3587C11.6431 13.4624 11.7246 13.5439 11.8283 13.5439ZM12.9394 12.803H12.569C12.4653 12.803 12.3838 12.7215 12.3838 12.6178V12.2474C12.3838 12.1437 12.4653 12.0622 12.569 12.0622H12.9394C13.0431 12.0622 13.1245 12.1437 13.1245 12.2474V12.6178C13.1245 12.7215 13.0431 12.803 12.9394 12.803ZM12.9394 10.5809H12.569C12.4653 10.5809 12.3838 10.6624 12.3838 10.7661V11.1364C12.3838 11.2401 12.4653 11.3216 12.569 11.3216H12.9394C13.0431 11.3216 13.1245 11.2401 13.1245 11.1364V10.7661C13.1245 10.6624 13.0431 10.5809 12.9394 10.5809ZM13.6801 12.0623H13.3097C13.206 12.0623 13.1245 11.9808 13.1245 11.8771V11.5068C13.1245 11.403 13.206 11.3216 13.3097 11.3216H13.6801C13.7838 11.3216 13.8653 11.403 13.8653 11.5068V11.8771C13.8653 11.9808 13.7838 12.0623 13.6801 12.0623Z" fill="#A9A9A9"/>
</svg>
