<svg width="21" height="21" viewBox="0 0 21 21" fill="none" xmlns="http://www.w3.org/2000/svg">
<path d="M4.76402 9.37712H8.09735C9.01402 9.37712 9.76402 8.62712 9.76402 7.71045V4.37712C9.76402 3.46045 9.01402 2.71045 8.09735 2.71045H4.76402C3.84735 2.71045 3.09735 3.46045 3.09735 4.37712V7.71045C3.09735 8.62712 3.84735 9.37712 4.76402 9.37712ZM4.76402 4.37712H8.09735V7.71045H4.76402V4.37712Z" fill="#A9A9A9"/>
<path d="M4.76402 17.7105H8.09735C9.01402 17.7105 9.76402 16.9605 9.76402 16.0438V12.7105C9.76402 11.7938 9.01402 11.0438 8.09735 11.0438H4.76402C3.84735 11.0438 3.09735 11.7938 3.09735 12.7105V16.0438C3.09735 16.9605 3.84735 17.7105 4.76402 17.7105ZM4.76402 12.7105H8.09735V16.0438H4.76402V12.7105Z" fill="#A9A9A9"/>
<path d="M11.4307 4.37712V7.71045C11.4307 8.62712 12.1807 9.37712 13.0973 9.37712H16.4307C17.3473 9.37712 18.0973 8.62712 18.0973 7.71045V4.37712C18.0973 3.46045 17.3473 2.71045 16.4307 2.71045H13.0973C12.1807 2.71045 11.4307 3.46045 11.4307 4.37712ZM16.4307 7.71045H13.0973V4.37712H16.4307V7.71045Z" fill="#A9A9A9"/>
<path d="M18.0973 17.2938V16.4605C18.0973 16.2272 17.914 16.0438 17.6807 16.0438H16.8473C16.614 16.0438 16.4307 16.2272 16.4307 16.4605V17.2938C16.4307 17.5272 16.614 17.7105 16.8473 17.7105H17.6807C17.914 17.7105 18.0973 17.5272 18.0973 17.2938Z" fill="#A9A9A9"/>
<path d="M11.4307 11.4605V12.2938C11.4307 12.5272 11.614 12.7105 11.8473 12.7105H12.6807C12.914 12.7105 13.0973 12.5272 13.0973 12.2938V11.4605C13.0973 11.2272 12.914 11.0438 12.6807 11.0438H11.8473C11.614 11.0438 11.4307 11.2272 11.4307 11.4605Z" fill="#A9A9A9"/>
<path d="M14.3474 12.7104H13.514C13.2807 12.7104 13.0974 12.8938 13.0974 13.1271V13.9604C13.0974 14.1938 13.2807 14.3771 13.514 14.3771H14.3474C14.5807 14.3771 14.764 14.1938 14.764 13.9604V13.1271C14.764 12.8938 14.5807 12.7104 14.3474 12.7104Z" fill="#A9A9A9"/>
<path d="M11.4307 14.7937V15.6271C11.4307 15.8604 11.614 16.0437 11.8473 16.0437H12.6807C12.914 16.0437 13.0973 15.8604 13.0973 15.6271V14.7937C13.0973 14.5604 12.914 14.3771 12.6807 14.3771H11.8473C11.614 14.3771 11.4307 14.5604 11.4307 14.7937Z" fill="#A9A9A9"/>
<path d="M13.514 17.7105H14.3474C14.5807 17.7105 14.764 17.5272 14.764 17.2938V16.4605C14.764 16.2272 14.5807 16.0438 14.3474 16.0438H13.514C13.2807 16.0438 13.0974 16.2272 13.0974 16.4605V17.2938C13.0974 17.5272 13.2807 17.7105 13.514 17.7105Z" fill="#A9A9A9"/>
<path d="M15.1807 16.0437H16.014C16.2474 16.0437 16.4307 15.8604 16.4307 15.6271V14.7937C16.4307 14.5604 16.2474 14.3771 16.014 14.3771H15.1807C14.9474 14.3771 14.764 14.5604 14.764 14.7937V15.6271C14.764 15.8604 14.9474 16.0437 15.1807 16.0437Z" fill="#A9A9A9"/>
<path d="M16.014 11.0438H15.1807C14.9474 11.0438 14.764 11.2272 14.764 11.4605V12.2938C14.764 12.5272 14.9474 12.7105 15.1807 12.7105H16.014C16.2474 12.7105 16.4307 12.5272 16.4307 12.2938V11.4605C16.4307 11.2272 16.2474 11.0438 16.014 11.0438Z" fill="#A9A9A9"/>
<path d="M16.8473 14.3771H17.6807C17.914 14.3771 18.0973 14.1938 18.0973 13.9604V13.1271C18.0973 12.8938 17.914 12.7104 17.6807 12.7104H16.8473C16.614 12.7104 16.4307 12.8938 16.4307 13.1271V13.9604C16.4307 14.1938 16.614 14.3771 16.8473 14.3771Z" fill="#A9A9A9"/>
</svg>
