<svg width="21" height="21" viewBox="0 0 21 21" fill="none" xmlns="http://www.w3.org/2000/svg">
<path d="M8.3833 5.62708V8.12708H5.8833V5.62708H8.3833ZM9.6333 4.37708H4.6333V9.37708H9.6333V4.37708ZM8.3833 12.2937V14.7937H5.8833V12.2937H8.3833ZM9.6333 11.0437H4.6333V16.0437H9.6333V11.0437ZM15.05 5.62708V8.12708H12.55V5.62708H15.05ZM16.3 4.37708H11.3V9.37708H16.3V4.37708ZM11.3 11.0437H12.55V12.2937H11.3V11.0437ZM12.55 12.2937H13.8V13.5437H12.55V12.2937ZM13.8 11.0437H15.05V12.2937H13.8V11.0437ZM11.3 13.5437H12.55V14.7937H11.3V13.5437ZM12.55 14.7937H13.8V16.0437H12.55V14.7937ZM13.8 13.5437H15.05V14.7937H13.8V13.5437ZM15.05 12.2937H16.3V13.5437H15.05V12.2937ZM15.05 14.7937H16.3V16.0437H15.05V14.7937ZM17.9666 6.04374C17.5083 6.04374 17.1333 5.66874 17.1333 5.21041V3.54374H15.4666C15.0083 3.54374 14.6333 3.16874 14.6333 2.71041C14.6333 2.25208 15.0083 1.87708 15.4666 1.87708H17.9666C18.425 1.87708 18.8 2.25208 18.8 2.71041V5.21041C18.8 5.66874 18.425 6.04374 17.9666 6.04374ZM18.8 17.7104V15.2104C18.8 14.7521 18.425 14.3771 17.9666 14.3771C17.5083 14.3771 17.1333 14.7521 17.1333 15.2104V16.8771H15.4666C15.0083 16.8771 14.6333 17.2521 14.6333 17.7104C14.6333 18.1687 15.0083 18.5437 15.4666 18.5437H17.9666C18.425 18.5437 18.8 18.1687 18.8 17.7104ZM2.96663 18.5437H5.46663C5.92497 18.5437 6.29997 18.1687 6.29997 17.7104C6.29997 17.2521 5.92497 16.8771 5.46663 16.8771H3.79997V15.2104C3.79997 14.7521 3.42497 14.3771 2.96663 14.3771C2.5083 14.3771 2.1333 14.7521 2.1333 15.2104V17.7104C2.1333 18.1687 2.5083 18.5437 2.96663 18.5437ZM2.1333 2.71041V5.21041C2.1333 5.66874 2.5083 6.04374 2.96663 6.04374C3.42497 6.04374 3.79997 5.66874 3.79997 5.21041V3.54374H5.46663C5.92497 3.54374 6.29997 3.16874 6.29997 2.71041C6.29997 2.25208 5.92497 1.87708 5.46663 1.87708H2.96663C2.5083 1.87708 2.1333 2.25208 2.1333 2.71041Z" fill="#A9A9A9"/>
</svg>
